<svg xmlns="http://www.w3.org/2000/svg" viewBox="0 0 22.41 23.11"><title>iAjustes</title><g id="Layer_2" data-name="Layer 2"><g id="Layer_1-2" data-name="Layer 1"><path d="M19.93,11.56a2.83,2.83,0,0,1,2.48-2.8,11.52,11.52,0,0,0-3.18-5.5A2.83,2.83,0,0,1,14,1.74,2.81,2.81,0,0,1,14.35.45,11.26,11.26,0,0,0,11.2,0,11.68,11.68,0,0,0,7.79.51a2.86,2.86,0,0,1,.3,1.23A2.83,2.83,0,0,1,3,3.43,11.48,11.48,0,0,0,0,8.76a2.84,2.84,0,0,1,2.48,2.8A2.83,2.83,0,0,1,0,14.35a11.55,11.55,0,0,0,3.05,5.39,2.82,2.82,0,0,1,5,1.75,2.86,2.86,0,0,1-.24,1.13,11.6,11.6,0,0,0,3.35.49,11.32,11.32,0,0,0,3.1-.43A2.64,2.64,0,0,1,14,21.49a2.83,2.83,0,0,1,5.17-1.59,11.62,11.62,0,0,0,3.22-5.55A2.82,2.82,0,0,1,19.93,11.56Zm-8.73,4.6a4.61,4.61,0,1,1,4.61-4.6A4.6,4.6,0,0,1,11.2,16.16Z" fill="#757575"/></g></g></svg>