<svg xmlns="http://www.w3.org/2000/svg" viewBox="0 0 35.4 12.75"><title>iCallAction</title><g id="Layer_2" data-name="Layer 2"><g id="Layer_1-2" data-name="Layer 1"><path d="M34.84,6.7S29.63,0,17.74,0h-.08C5.77,0,.56,6.7.56,6.7a1.62,1.62,0,0,0,0,2.43c1.27,1.29,3.29,3.31,3.29,3.31a2.53,2.53,0,0,0,3-.38c1.6-1.29,2.72-2.23,2.72-2.23a3.09,3.09,0,0,0,1-2c0-1-2.06-3,.84-4.15a16.57,16.57,0,0,1,6.27-1.12h.08A16.57,16.57,0,0,1,24,3.69c2.9,1.15.87,3.1.84,4.15a3.09,3.09,0,0,0,1,2s1.12.94,2.72,2.23a2.53,2.53,0,0,0,3,.38s2-2,3.29-3.31A1.62,1.62,0,0,0,34.84,6.7Z" fill="#757575"/></g></g></svg>