<svg xmlns="http://www.w3.org/2000/svg" viewBox="0 0 29.49 26.84"><title>iCamera</title><g id="Layer_2" data-name="Layer 2"><g id="Layer_1-2" data-name="Layer 1"><circle cx="14.69" cy="14.93" r="4.42" fill="#757575"/><path d="M26,3H21.35L19.78,1.3S18.85,0,17.92,0H11.46c-.94,0-1.87,1.3-1.87,1.3L8,3H3.44A3.45,3.45,0,0,0,0,6.47V23.39a3.45,3.45,0,0,0,3.44,3.45H26a3.46,3.46,0,0,0,3.45-3.45V6.47A3.46,3.46,0,0,0,26,3ZM14.69,22.82a7.89,7.89,0,1,1,7.89-7.89A7.9,7.9,0,0,1,14.69,22.82Z" fill="#757575"/></g></g></svg>