<svg xmlns="http://www.w3.org/2000/svg" viewBox="0 0 23.64 17.54"><title>iContact</title><g id="Layer_2" data-name="Layer 2"><g id="Layer_1-2" data-name="Layer 1"><path d="M21.5,0H2.14A2.14,2.14,0,0,0,0,2.14V15.4a2.14,2.14,0,0,0,2.14,2.14H21.5a2.15,2.15,0,0,0,2.14-2.14V2.14A2.15,2.15,0,0,0,21.5,0ZM7.68,2.7A3.2,3.2,0,1,1,4.47,5.9,3.2,3.2,0,0,1,7.68,2.7Zm-6,12.05a6.12,6.12,0,0,1,6.21-4.32c5.14,0,5.73,4.32,5.73,4.32ZM17,8.72A5.92,5.92,0,0,0,17.42,11c.41,1,1.11.31,1.48.3a1.09,1.09,0,0,1,.71.36s.34.4.8,1a.91.91,0,0,1,.14,1.06l-1.18,1.17a.58.58,0,0,1-.87,0S16.11,13,16.11,8.72h0c0-4.25,2.39-6.1,2.39-6.1a.57.57,0,0,1,.87,0l1.18,1.17a.91.91,0,0,1-.14,1.06c-.46.57-.8,1-.8,1a1.09,1.09,0,0,1-.71.36c-.37,0-1.07-.74-1.48.3A5.9,5.9,0,0,0,17,8.7h0Z" fill="#757575"/></g></g></svg>