<?xml version="1.0" ?><svg data-name="Layer 1" id="Layer_1" viewBox="0 0 100 100" xmlns="http://www.w3.org/2000/svg"><title/><g><path d="M50,4.25A41.54747,41.54747,0,0,0,8.5,45.75v8.5a41.5,41.5,0,0,0,83,0v-8.5A41.54747,41.54747,0,0,0,50,4.25Zm0,6A35.37521,35.37521,0,1,1,14.50317,45.625,35.538,35.538,0,0,1,50,10.25Zm0,79.5A35.55507,35.55507,0,0,1,15.486,62.53424a38.47983,38.47983,0,0,0,69.02808,0A35.55507,35.55507,0,0,1,50,89.75Z" fill="#4d4d4d"/><path d="M31.64862,39.713c0.38312,0.69653.801,1.39307,1.2016,2.08966L33.6861,43.248l0.05225-.01746A64.34975,64.34975,0,0,0,59.9986,66.53046l0.03485-.087a7.21249,7.21249,0,0,0,8.4632-2.229l1.86328-2.40314a3.007,3.007,0,0,0-.87067-4.45795l-8.93341-5.15454A3.01314,3.01314,0,0,0,56.25464,53.679l-0.83588,2.05487a1.13122,1.13122,0,0,1-1.724.48755,58.75151,58.75151,0,0,1-13.80933-13.966,1.15367,1.15367,0,0,1,.505-1.724l1.95038-.78363A3.00553,3.00553,0,0,0,43.821,35.44647L38.6839,26.51312a3.0235,3.0235,0,0,0-4.4754-.87073L31.788,27.50574a7.22814,7.22814,0,0,0-1.82849,9.29907Z" fill="#4d4d4d"/></g></svg>