<svg xmlns="http://www.w3.org/2000/svg" viewBox="0 0 22.88 22.88"><title>iEmail</title><g id="Layer_2" data-name="Layer 2"><g id="Layer_1-2" data-name="Layer 1"><path d="M22.53,14.55l.09-.36a12.81,12.81,0,0,0,.26-2.75A11.44,11.44,0,1,0,11.44,22.88c.4,0,.79,0,1.17-.05l-.17-1.66a8.27,8.27,0,0,1-1,0,9.78,9.78,0,1,1,9.78-9.78,9.62,9.62,0,0,1-.34,2.88h0a1.79,1.79,0,0,1-1.73,1.13,1.82,1.82,0,0,1-1.81-1.75,6.27,6.27,0,0,0,.43-2.26,6.35,6.35,0,1,0-1.5,4.08,3.46,3.46,0,0,0,6.16-.72h0C22.49,14.72,22.5,14.64,22.53,14.55Zm-11.09.22a3.33,3.33,0,1,1,3.33-3.33A3.33,3.33,0,0,1,11.44,14.77Z" fill="#757575"/></g></g></svg>