<svg xmlns="http://www.w3.org/2000/svg" viewBox="0 0 24.63 20.16"><title>iHistoria</title><g id="Layer_2" data-name="Layer 2"><g id="Layer_1-2" data-name="Layer 1"><path d="M21.1,0H3.52A3.53,3.53,0,0,0,0,3.52V16.64a3.53,3.53,0,0,0,3.52,3.52H21.1a3.53,3.53,0,0,0,3.53-3.52V3.52A3.53,3.53,0,0,0,21.1,0Zm.53,16.64a.53.53,0,0,1-.53.52H3.52A.53.53,0,0,1,3,16.64V3.52A.53.53,0,0,1,3.52,3H21.1a.53.53,0,0,1,.53.52Z" fill="#757575"/><rect x="11.13" y="5.22" width="8" height="5.91" fill="#757575"/></g></g></svg>