<svg xmlns="http://www.w3.org/2000/svg" viewBox="0 0 23.66 23.66"><title>iNoticia</title><g id="Layer_2" data-name="Layer 2"><g id="Layer_1-2" data-name="Layer 1"><path d="M11.83,0A11.83,11.83,0,1,0,23.66,11.83,11.85,11.85,0,0,0,11.83,0ZM3,11.83a8.83,8.83,0,0,1,.27-2.14,7.13,7.13,0,0,0,.89,1.23A27.14,27.14,0,0,0,6,13.23c1.12,1,1.54.76,3.07,1.39s.14,2,.56,2.93.77.49,1.19,1.88a2.56,2.56,0,0,1,.1,1.18A8.84,8.84,0,0,1,3,11.83Zm14.94,6.36V18c0-1.16-1.78-.39-2.69-1s.28-2.16.21-3.49-1.6-.83-3.14-.9-3.9.14-5.16,0S6.39,10,6.88,9.67a12.35,12.35,0,0,0,3-1.75c1.33-1.11.91-1.39,1.95-2.23s.28-.07,2.45-.28A1.78,1.78,0,0,0,15.9,4a8.81,8.81,0,0,1,2,14.19Z" fill="#757575"/></g></g></svg>