<svg xmlns="http://www.w3.org/2000/svg" viewBox="0 0 25.78 20.54"><title>iSms</title><g id="Layer_2" data-name="Layer 2"><g id="Layer_1-2" data-name="Layer 1"><path d="M22.21,0H3.57A3.61,3.61,0,0,0,0,3.64V16.9a3.61,3.61,0,0,0,3.57,3.64H22.21a3.61,3.61,0,0,0,3.57-3.64V3.64A3.61,3.61,0,0,0,22.21,0ZM3.57,3H22.21a.61.61,0,0,1,.57.64V4.87h0l-9.83,5.35L3,4.87H3V3.64A.61.61,0,0,1,3.57,3ZM22.21,17.54H3.57A.61.61,0,0,1,3,16.9V7.17l9.45,5.1a1,1,0,0,0,.48.12,1,1,0,0,0,.49-.13l9.36-5.09V16.9A.61.61,0,0,1,22.21,17.54Z" fill="#757575"/></g></g></svg>