<svg xmlns="http://www.w3.org/2000/svg" viewBox="0 0 19.4 22.94"><title>iSugerencia</title><g id="Layer_2" data-name="Layer 2"><g id="Layer_1-2" data-name="Layer 1"><path d="M19.4,9.7a9.7,9.7,0,1,0-9.7,9.7,10.34,10.34,0,0,0,1.11-.07v3.61s8.59-6.28,8.59-12.56c0-.15,0-.28,0-.41S19.4,9.79,19.4,9.7Zm-8.84,7.54H8.48v-2.1h2.08Zm2.59-8.68a13,13,0,0,1-1.88,2.21,2.21,2.21,0,0,0-.66,1,5.52,5.52,0,0,0-.12,1.35h-2a6.08,6.08,0,0,1,.25-2A5.38,5.38,0,0,1,10,9.58a22.1,22.1,0,0,0,1.42-1.82,2.7,2.7,0,0,0,.42-1.53,2.25,2.25,0,0,0-.57-1.65A2.2,2.2,0,0,0,9.67,4a2.43,2.43,0,0,0-1.56.5A1.74,1.74,0,0,0,7.46,6H5.56l0-.06A3.15,3.15,0,0,1,6.68,3.31a4.52,4.52,0,0,1,3-1,4.36,4.36,0,0,1,3.09,1,3.66,3.66,0,0,1,1.1,2.83A4.26,4.26,0,0,1,13.15,8.56Z" fill="#757575"/></g></g></svg>