<svg xmlns="http://www.w3.org/2000/svg" viewBox="0 0 29.33 29.33"><title>iTabPublic</title><g id="Layer_2" data-name="Layer 2"><g id="Layer_1-2" data-name="Layer 1"><path d="M14.66,0A14.67,14.67,0,1,0,29.33,14.66,14.68,14.68,0,0,0,14.66,0ZM3,14.66a11.66,11.66,0,0,1,.47-3.25,10.23,10.23,0,0,0,1.42,2.1c1.07,1.13,1,1.6,2.4,2.94s2,1,3.92,1.77.17,2.49.71,3.74,1,.62,1.51,2.4a2.7,2.7,0,0,1,0,1.9A11.68,11.68,0,0,1,3,14.66Zm19.43,8.69a7.18,7.18,0,0,0,0-.81c-.05-1.47-2.26-.49-3.42-1.29s.36-2.76.27-4.45-2.05-1.07-4-1.15-5,.17-6.58,0-1-3.38-.36-3.74a16.2,16.2,0,0,0,3.82-2.22c1.69-1.43,1.16-1.78,2.48-2.85s.37-.09,3.13-.35A2.41,2.41,0,0,0,20,4.28a11.64,11.64,0,0,1,2.47,19.07Z" fill="#757575"/></g></g></svg>